<svg id="Layer_1" data-name="Layer 1" xmlns="http://www.w3.org/2000/svg" xmlns:xlink="http://www.w3.org/1999/xlink" viewBox="0 0 1042 160"><defs><style>.cls-1{fill:#fff;}.cls-2{fill:url(#linear-gradient);}.cls-3{fill:url(#linear-gradient-2);}.cls-4{fill:url(#linear-gradient-3);}.cls-5{fill:url(#linear-gradient-4);}.cls-6{fill:url(#linear-gradient-5);}.cls-7{fill:url(#linear-gradient-6);}.cls-8{fill:url(#linear-gradient-7);}.cls-9{fill:url(#linear-gradient-8);}</style><linearGradient id="linear-gradient" x1="133.82" y1="-1.4" x2="133.82" y2="166.35" gradientUnits="userSpaceOnUse"><stop offset="0" stop-color="#8df836"/><stop offset="1" stop-color="#0f9143"/></linearGradient><linearGradient id="linear-gradient-2" x1="89.85" y1="-0.53" x2="89.85" y2="165.47" xlink:href="#linear-gradient"/><linearGradient id="linear-gradient-3" x1="143.9" y1="-1.68" x2="143.9" y2="166.64" xlink:href="#linear-gradient"/><linearGradient id="linear-gradient-4" x1="254.56" y1="-1.15" x2="254.56" y2="136.92" xlink:href="#linear-gradient"/><linearGradient id="linear-gradient-5" x1="319.06" y1="-1.15" x2="319.06" y2="136.92" xlink:href="#linear-gradient"/><linearGradient id="linear-gradient-6" x1="391.39" y1="-1.15" x2="391.39" y2="136.92" xlink:href="#linear-gradient"/><linearGradient id="linear-gradient-7" x1="464.41" y1="-1.15" x2="464.41" y2="136.92" xlink:href="#linear-gradient"/><linearGradient id="linear-gradient-8" x1="538.39" y1="-1.15" x2="538.39" y2="136.92" xlink:href="#linear-gradient"/></defs><path class="cls-1" d="M79.56.43,0,80l79.56,79.57V134.2L25.36,80l54.2-54.2Z"/><polygon class="cls-2" points="173.6 80 160.92 92.68 94.04 159.56 94.04 134.2 148.24 80 131.42 63.18 114.2 45.97 94.04 25.8 94.04 0.44 126.88 33.29 173.6 80"/><polygon class="cls-3" points="116.68 68.86 75.7 109.84 63.02 97.16 83.14 77.04 104 56.17 116.68 68.86"/><polygon class="cls-4" points="173.6 80 160.92 92.68 131.42 63.19 114.2 45.97 126.89 33.29 173.6 80"/><path class="cls-5" d="M225.43,31.17h18.4v64.5h39.86v15H225.43Z"/><path class="cls-6" d="M285.5,80.11c0-18.39,14.2-31.45,33.61-31.45s33.5,13.06,33.5,31.45-14.08,31.46-33.5,31.46S285.5,98.51,285.5,80.11Zm49.17,0c0-10.56-6.7-16.92-15.56-16.92s-15.67,6.36-15.67,16.92S310.26,97,319.11,97,334.67,90.67,334.67,80.11Z"/><path class="cls-7" d="M425.18,49.56v50.88c0,22.71-12.27,33.16-34.3,33.16-11.58,0-22.82-2.84-30-8.4l7-12.72c5.23,4.2,13.74,6.92,21.58,6.92,12.49,0,17.94-5.67,17.94-16.69V100.1c-4.66,5.11-11.36,7.61-19.3,7.61-16.93,0-30.55-11.7-30.55-29.53s13.62-29.52,30.55-29.52c8.51,0,15.55,2.83,20.21,8.74V49.56ZM407.69,78.18c0-9-6.7-15-16-15s-16.13,6-16.13,15,6.81,15,16.13,15S407.69,87.15,407.69,78.18Z"/><path class="cls-8" d="M493.42,75.8v34.86H476.84v-7.61c-3.29,5.57-9.65,8.52-18.62,8.52-14.31,0-22.83-7.95-22.83-18.51,0-10.79,7.61-18.29,26.24-18.29h14.08c0-7.6-4.55-12-14.08-12-6.48,0-13.18,2.15-17.61,5.67L437.66,56c6.7-4.77,16.58-7.38,26.35-7.38C482.63,48.66,493.42,57.29,493.42,75.8ZM475.71,91.35V85.11H463.56c-8.29,0-10.91,3.06-10.91,7.15,0,4.43,3.75,7.38,10,7.38C468.55,99.64,473.66,96.92,475.71,91.35Z"/><path class="cls-9" d="M569.62,75.68v35H551.9V78.41c0-9.88-4.54-14.42-12.38-14.42-8.51,0-14.65,5.22-14.65,16.46v30.21H507.16V49.56h16.92v7.16c4.77-5.23,11.92-8.06,20.21-8.06C558.71,48.66,569.62,57.06,569.62,75.68Z"/><path class="cls-1" d="M690.66,110.66l-.11-57.92L661.82,101H656.6L627.87,53.08v57.58H617V31.17h9.32L659.44,87l32.7-55.87h9.31l.12,79.49Z"/><path class="cls-1" d="M777.65,50.47v60.19H767.31v-9.09c-4.43,6.25-11.92,9.77-20.44,9.77-15.56,0-25.89-8.52-25.89-26.23V50.47h10.9V83.86c0,11.81,5.91,17.71,16.24,17.71,11.36,0,18.62-7,18.62-20V50.47Z"/><path class="cls-1" d="M828.52,49.9V60.47a18.3,18.3,0,0,0-2.5-.12c-11.7,0-19,7.16-19,20.33v30h-10.9V50.47H806.6V60.58C810.46,53.54,818,49.9,828.52,49.9Z"/><path class="cls-1" d="M902,80.57c0,18.51-12.83,30.77-30.44,30.77-8.51,0-16-3.29-21-9.77v31.12H839.64V50.47h10.45V60C855,53.31,862.7,49.9,871.55,49.9,889.16,49.9,902,62.17,902,80.57Zm-11,0c0-12.72-8.74-21.13-20.33-21.13s-20.21,8.41-20.21,21.13,8.75,21.23,20.21,21.23S891,93.4,891,80.57Z"/><path class="cls-1" d="M971.94,76v34.64H961V77.27c0-11.81-5.9-17.6-16.23-17.6-11.59,0-19.08,6.93-19.08,20v31h-10.9V26.4h10.9V59c4.54-5.79,12-9.09,21.23-9.09C961.6,49.9,971.94,58.31,971.94,76Z"/><path class="cls-1" d="M1042,50.47l-29.18,66.21c-5.34,12.72-12.27,16.69-21.47,16.69-5.79,0-11.69-1.93-15.44-5.56l4.65-8.18a15.41,15.41,0,0,0,10.79,4.43c5.23,0,8.52-2.38,11.47-9.31l1.93-4.2L978.18,50.47h11.36l21,48.15,20.79-48.15Z"/></svg>